# xmcd
# 
# Track frame offsets:
#     150
#     10450
#     23990
#     34227
#     48235
#     67507
#     80575
#     99440
#     116240
#     131807
#     148195
#     163267
#     184777
#     225015
#     235330
#     248992
#     266592
#     286480
#     307965
#     313995
# 
# Disc length: 4267
# 
# Revision: 5
# Processed by: cddbd v1.5.2PL0 Copyright (c) Steve Scherf et al.
# Submitted via: fre:ac v1.0.31
# 
DISCID=1a10a914
DTITLE=Various Artist - ヤマト・ザ・ベスト II
DYEAR=2004
DGENRE=Soundtrack
TTITLE0=ささきいさお/ロイヤル・ナイツ - 宇宙戦艦ヤマト
TTITLE1=ささきいさお/ロイヤル・ナイツ - 真赤なスカーフ
TTITLE2=ささきいさお - SPACE CRUISER YAMATO (宇宙戦艦ヤマト)
TTITLE3=ささきいさお - THE RED SCARF (真赤なスカーフ)
TTITLE4=ささきいさお - 星に想うスターシャ
TTITLE5=ささきいさお - 好敵手
TTITLE6=ささきいさお - ヤマトより愛をこめて
TTITLE7=堀江美都子 - 愛の生命
TTITLE8=堀江美都子 - おもかげ星
TTITLE9=ささきいさお - 愛よその日まで
TTITLE10=堀江美都子 - 銀河伝説
TTITLE11=ささきいさお - ヤマトの賦 -海神-
TTITLE12=ささきいさお - ヤマト10年の賦
TTITLE13=ロイヤル・ナイツ (コーラス) - 宇宙戦艦ヤマト (オリジナル・カラオケ)
TTITLE14=ロイヤル・ナイツ (コーラス) - 真赤なスカーフ (オリジナル・カラオケ)
TTITLE15=フィーリングフリー (コーラス) - ヤマト!!新たなる旅立ち (オリジナル・カラオケ)
TTITLE16=VA - 星のペンダント (オリジナル・カラオケ)
TTITLE17=川島和子 (スキャット) - 宇宙戦艦ヤマト'83 (オリジナル・カラオケ)
TTITLE18=ささきいさお/ミュージカル・アカデミー - 宇宙戦艦ヤマト (TVサイズ)
TTITLE19=ささきいさお/ミュージカル・アカデミー - 真赤なスカーフ (TVサイズ)
EXTD=YEAR: 2004.12.22
EXTT0=
EXTT1=
EXTT2=
EXTT3=
EXTT4=
EXTT5=
EXTT6=
EXTT7=
EXTT8=
EXTT9=
EXTT10=
EXTT11=
EXTT12=
EXTT13=
EXTT14=
EXTT15=
EXTT16=
EXTT17=
EXTT18=
EXTT19=
PLAYORDER=
